HIERARCHY
ROOT Pelvis
{
	OFFSET 0.000000 0.000000 0.000000
	CHANNELS 6 Xposition Yposition Zposition Xrotation Yrotation Zrotation
	JOINT LeftUpLeg_virtual
	{
		OFFSET 0.000000 0.000000 0.000000
		CHANNELS 3 Xrotation Yrotation Zrotation
		JOINT LeftUpLeg
		{
			OFFSET 8.479700 -4.795502 -0.379100
			CHANNELS 3 Xrotation Yrotation Zrotation
			JOINT LeftLeg
			{
				OFFSET 0.024144 -32.555107 0.112900
				CHANNELS 3 Xrotation Yrotation Zrotation
				JOINT LeftFoot
				{
					OFFSET -0.024144 -32.638630 -3.012600
					CHANNELS 3 Xrotation Yrotation Zrotation
					JOINT LeftToeBase
					{
						OFFSET 0.970200 -13.225400 11.864200
						CHANNELS 3 Xrotation Yrotation Zrotation
						End Site
						{
							OFFSET 0 0 0
						}
					}
				}
			}
		}
	}
	JOINT RightUpLeg_virtual
	{
		OFFSET 0.000000 0.000000 0.000000
		CHANNELS 3 Xrotation Yrotation Zrotation
		JOINT RightUpLeg
		{
			OFFSET -8.479700 -4.795502 -0.379100
			CHANNELS 3 Xrotation Yrotation Zrotation
			JOINT RightLeg
			{
				OFFSET -0.023144 -32.555092 0.112900
				CHANNELS 3 Xrotation Yrotation Zrotation
				JOINT RightFoot
				{
					OFFSET 0.023144 -32.638641 -3.012700
					CHANNELS 3 Xrotation Yrotation Zrotation
					JOINT RightToeBase
					{
						OFFSET -0.970200 -13.225400 11.864200
						CHANNELS 3 Xrotation Yrotation Zrotation
						End Site
						{
							OFFSET 0 0 0
						}
					}
				}
			}
		}
	}
	JOINT Hips_virtual
	{
		OFFSET 0.000000 0.000000 0.000000
		CHANNELS 3 Xrotation Yrotation Zrotation
		JOINT Hips
		{
			OFFSET -0.000000 -0.000000 -0.000000
			CHANNELS 3 Xrotation Yrotation Zrotation
			JOINT Spine
			{
				OFFSET 0.000000 7.722000 1.166200
				CHANNELS 3 Xrotation Yrotation Zrotation
				JOINT Spine1
				{
					OFFSET 0.000000 12.024101 0.248800
					CHANNELS 3 Xrotation Yrotation Zrotation
					JOINT Spine2
					{
						OFFSET 0.000000 11.502998 -0.491200
						CHANNELS 3 Xrotation Yrotation Zrotation
						JOINT Neck_virtual
						{
							OFFSET 0.000000 0.000000 0.000000
							CHANNELS 3 Xrotation Yrotation Zrotation
							JOINT Neck
							{
								OFFSET 0.000000 18.430702 -3.123100
								CHANNELS 3 Xrotation Yrotation Zrotation
								JOINT Head
								{
									OFFSET 0.000000 9.051102 1.034000
									CHANNELS 3 Xrotation Yrotation Zrotation
									End Site
									{
										OFFSET 0 0 0
									}
								}
							}
						}
						JOINT LeftShoulder_virtual
						{
							OFFSET 0.000000 0.000000 0.000000
							CHANNELS 3 Xrotation Yrotation Zrotation
							JOINT LeftShoulder
							{
								OFFSET 6.197800 13.665199 -4.064700
								CHANNELS 3 Xrotation Yrotation Zrotation
								JOINT LeftArm
								{
									OFFSET 7.778100 -0.187103 -1.709300
									CHANNELS 3 Xrotation Yrotation Zrotation
									JOINT LeftForeArm
									{
										OFFSET 22.049376 0.000000 0.000000
										CHANNELS 3 Xrotation Yrotation Zrotation
										JOINT LeftHand
										{
											OFFSET 23.009392 0.000000 0.000000
											CHANNELS 3 Xrotation Yrotation Zrotation
											End Site
											{
												OFFSET 0 0 0
											}
										}
									}
								}
							}
						}
						JOINT RightShoulder_virtual
						{
							OFFSET 0.000000 0.000000 0.000000
							CHANNELS 3 Xrotation Yrotation Zrotation
							JOINT RightShoulder
							{
								OFFSET -6.197800 13.665199 -4.064700
								CHANNELS 3 Xrotation Yrotation Zrotation
								JOINT RightArm
								{
									OFFSET -7.778100 -0.187103 -1.709300
									CHANNELS 3 Xrotation Yrotation Zrotation
									JOINT RightForeArm
									{
										OFFSET -22.049376 0.000000 0.000000
										CHANNELS 3 Xrotation Yrotation Zrotation
										JOINT RightHand
										{
											OFFSET -23.009392 0.000000 0.000000
											CHANNELS 3 Xrotation Yrotation Zrotation
											End Site
											{
												OFFSET 0 0 0
											}
										}
									}
								}
							}
						}
					}
				}
			}
		}
	}
}
MOTION
Frames: 4
Frame Time: 0.03333333
0.182463 74.032303 -2.446829 0.000000 0.000000 0.000000 -23.091401 -5.572994 -1.654489 -91.181147 8.642921 31.906201 123.980665 -20.816210 0.208745 -29.366207 -3.948633 12.851783 0.000000 0.000000 0.000000 -23.091401 -5.572994 -1.654489 -108.503087 -5.140434 -37.236545 128.565061 23.496816 -1.658384 -23.832874 0.225793 -1.301061 0.000000 0.000000 0.000000 -23.091401 -5.572994 -1.654489 0.000001 0.000001 -0.000000 7.685002 -1.060431 -0.525892 15.374075 -1.676404 -0.551058 0.000000 0.000000 0.000000 15.374078 -1.676406 -0.551059 -11.803036 2.538409 0.513533 0.000000 0.000000 0.000000 15.374078 -1.676406 -0.551059 -0.117974 -1.799430 36.289430 -52.783231 -25.523903 -11.661714 -14.599476 -27.801858 2.187909 0.000000 0.000000 0.000000 15.374078 -1.676406 -0.551059 9.813664 24.196319 -37.946055 -46.242191 23.161329 -4.673697 -22.075477 26.224110 3.020031 0.000000 0.000000 0.000000 
0.165256 73.806694 -2.408575 0.000000 0.000000 0.000000 -22.807091 -5.560769 -1.664714 -91.737015 8.407022 31.663278 124.275155 -20.581006 0.216395 -29.689220 -3.862640 12.652851 0.000000 0.000000 0.000000 -22.807091 -5.560769 -1.664714 -108.892060 -4.900472 -36.753251 128.765117 23.514449 -1.641902 -24.319981 0.087213 -1.005755 0.000000 0.000000 0.000000 -22.807091 -5.560769 -1.664714 -0.000002 0.000000 0.000000 7.634696 -1.023238 -0.484248 15.273328 -1.606445 -0.492266 0.000000 0.000000 0.000000 15.273331 -1.606443 -0.492267 -14.761856 2.627877 0.599233 0.000000 0.000000 0.000000 15.273331 -1.606443 -0.492267 -0.463117 -1.070545 36.646116 -52.830864 -25.294846 -12.145891 -14.734629 -28.465344 2.458223 0.000000 0.000000 0.000000 15.273331 -1.606443 -0.492267 9.574049 23.264849 -38.203420 -46.458195 23.286058 -4.045075 -21.711696 26.550182 2.475556 0.000000 0.000000 0.000000 
0.147534 73.660576 -2.392437 0.000000 0.000000 0.000000 -22.409620 -5.534020 -1.690268 -92.370802 8.187670 31.370970 124.474515 -20.236300 0.232510 -29.808482 -3.774582 12.500938 0.000000 0.000000 0.000000 -22.409620 -5.534020 -1.690268 -109.309343 -4.722973 -36.199408 128.860179 23.360871 -1.622221 -24.627562 -0.040993 -0.762514 0.000000 0.000000 0.000000 -22.409620 -5.534020 -1.690268 0.000000 0.000000 0.000000 7.517865 -0.985124 -0.434055 15.039631 -1.534571 -0.418302 0.000000 0.000000 0.000000 15.039639 -1.534571 -0.418302 -17.769907 2.710620 0.790330 0.000000 0.000000 0.000000 15.039639 -1.534571 -0.418302 -0.794088 -0.411285 37.037647 -53.107367 -25.119646 -13.105116 -14.758154 -28.996670 2.732929 0.000000 0.000000 0.000000 15.039639 -1.534571 -0.418302 9.273472 22.311028 -38.387897 -46.870913 23.501713 -2.942167 -21.212589 27.007475 1.920323 0.000000 0.000000 0.000000 
0.129538 73.577927 -2.391502 0.000000 0.000000 0.000000 -21.939435 -5.505896 -1.731633 -93.063896 7.978099 31.052915 124.597732 -19.795755 0.257953 -29.717415 -3.675583 12.373938 0.000000 0.000000 0.000000 -21.939435 -5.505896 -1.731633 -109.756352 -4.605194 -35.591453 128.879167 23.050738 -1.609496 -24.753056 -0.159459 -0.550111 0.000000 0.000000 0.000000 -21.939435 -5.505896 -1.731633 0.000000 0.000000 0.000000 7.353504 -0.947201 -0.376778 14.710906 -1.463377 -0.331661 0.000000 0.000000 0.000000 14.710904 -1.463383 -0.331661 -20.744661 2.780007 1.039819 0.000000 0.000000 0.000000 14.710904 -1.463383 -0.331661 -1.099284 0.158974 37.454210 -53.530477 -24.931225 -14.399214 -14.700104 -29.457906 3.027311 0.000000 0.000000 0.000000 14.710904 -1.463383 -0.331661 8.958988 21.389437 -38.537140 -47.400837 23.753707 -1.536021 -20.640022 27.551687 1.343292 0.000000 0.000000 0.000000 
